{
    "asset" : {
        "generator" : "Khronos glTF Blender I/O v1.3.48",
        "version" : "2.0"
    },
    "scene" : 0,
    "scenes" : [
        {
            "name" : "Scene",
            "nodes" : [
                1,
                2,
                3,
                4
            ]
        }
    ],
    "nodes" : [
        {
            "camera" : 0,
            "name" : "Camera_Orientation",
            "rotation" : [
                -0.7071067690849304,
                0,
                0,
                0.7071067690849304
            ]
        },
        {
            "children" : [
                0
            ],
            "name" : "Camera",
            "rotation" : [
                0.483536034822464,
                0.33687159419059753,
                -0.20870360732078552,
                0.7804827094078064
            ],
            "translation" : [
                7.358891487121582,
                4.958309173583984,
                6.925790786743164
            ]
        },
        {
            "extras" : {
                "MapChannel:1" : "",
                "MaxHandle" : 2
            },
            "mesh" : 0,
            "name" : "Stem",
            "rotation" : [
                0.7071068286895752,
                0,
                0,
                0.7071067094802856
            ],
            "scale" : [
                0.02539999969303608,
                0.02539999969303608,
                0.02539999969303608
            ]
        },
        {
            "extras" : {
                "MapChannel:1" : "",
                "MaxHandle" : 2
            },
            "mesh" : 1,
            "name" : "Mangoo",
            "rotation" : [
                0.7071068286895752,
                0,
                0,
                0.7071067094802856
            ],
            "scale" : [
                0.02539999969303608,
                0.02539999969303608,
                0.02539999969303608
            ],
            "translation" : [
                0.019871234893798828,
                0.014903424307703972,
                0
            ]
        },
        {
            "extras" : {
                "MapChannel:1" : "",
                "MaxHandle" : 2
            },
            "mesh" : 2,
            "name" : "Leaflet",
            "rotation" : [
                0.7071068286895752,
                0,
                0,
                0.7071067094802856
            ],
            "scale" : [
                0.02539999969303608,
                0.02539999969303608,
                0.02539999969303608
            ]
        }
    ],
    "cameras" : [
        {
            "name" : "Camera",
            "perspective" : {
                "aspectRatio" : 1.7777777777777777,
                "yfov" : 0.39959652046304894,
                "zfar" : 100,
                "znear" : 0.10000000149011612
            },
            "type" : "perspective"
        }
    ],
    "animations" : [
        {
            "channels" : [
                {
                    "sampler" : 0,
                    "target" : {
                        "node" : 2,
                        "path" : "translation"
                    }
                },
                {
                    "sampler" : 1,
                    "target" : {
                        "node" : 2,
                        "path" : "rotation"
                    }
                },
                {
                    "sampler" : 2,
                    "target" : {
                        "node" : 2,
                        "path" : "scale"
                    }
                }
            ],
            "name" : "Mango|Take 001|BaseLayer",
            "samplers" : [
                {
                    "input" : 12,
                    "interpolation" : "STEP",
                    "output" : 13
                },
                {
                    "input" : 12,
                    "interpolation" : "STEP",
                    "output" : 14
                },
                {
                    "input" : 12,
                    "interpolation" : "STEP",
                    "output" : 15
                }
            ]
        },
        {
            "channels" : [
                {
                    "sampler" : 0,
                    "target" : {
                        "node" : 3,
                        "path" : "translation"
                    }
                },
                {
                    "sampler" : 1,
                    "target" : {
                        "node" : 3,
                        "path" : "rotation"
                    }
                },
                {
                    "sampler" : 2,
                    "target" : {
                        "node" : 3,
                        "path" : "scale"
                    }
                }
            ],
            "name" : "Mango|Take 001|BaseLayer.001",
            "samplers" : [
                {
                    "input" : 12,
                    "interpolation" : "STEP",
                    "output" : 16
                },
                {
                    "input" : 12,
                    "interpolation" : "STEP",
                    "output" : 17
                },
                {
                    "input" : 12,
                    "interpolation" : "STEP",
                    "output" : 18
                }
            ]
        },
        {
            "channels" : [
                {
                    "sampler" : 0,
                    "target" : {
                        "node" : 4,
                        "path" : "translation"
                    }
                },
                {
                    "sampler" : 1,
                    "target" : {
                        "node" : 4,
                        "path" : "rotation"
                    }
                },
                {
                    "sampler" : 2,
                    "target" : {
                        "node" : 4,
                        "path" : "scale"
                    }
                }
            ],
            "name" : "Mango|Take 001|BaseLayer.002",
            "samplers" : [
                {
                    "input" : 12,
                    "interpolation" : "STEP",
                    "output" : 19
                },
                {
                    "input" : 12,
                    "interpolation" : "STEP",
                    "output" : 20
                },
                {
                    "input" : 12,
                    "interpolation" : "STEP",
                    "output" : 21
                }
            ]
        }
    ],
    "materials" : [
        {
            "doubleSided" : true,
            "emissiveFactor" : [
                0,
                0,
                0
            ],
            "name" : "Mango",
            "pbrMetallicRoughness" : {
                "baseColorFactor" : [
                    0.5879999995231628,
                    0.5879999995231628,
                    0.5879999995231628,
                    1
                ],
                "metallicFactor" : 1,
                "roughnessFactor" : 0.858578622341156
            }
        }
    ],
    "meshes" : [
        {
            "name" : "Mesh",
            "primitives" : [
                {
                    "attributes" : {
                        "POSITION" : 0,
                        "NORMAL" : 1,
                        "TEXCOORD_0" : 2
                    },
                    "indices" : 3,
                    "material" : 0
                }
            ]
        },
        {
            "name" : "Mesh.001",
            "primitives" : [
                {
                    "attributes" : {
                        "POSITION" : 4,
                        "NORMAL" : 5,
                        "TEXCOORD_0" : 6
                    },
                    "indices" : 7,
                    "material" : 0
                }
            ]
        },
        {
            "name" : "Mesh.002",
            "primitives" : [
                {
                    "attributes" : {
                        "POSITION" : 8,
                        "NORMAL" : 9,
                        "TEXCOORD_0" : 10
                    },
                    "indices" : 11,
                    "material" : 0
                }
            ]
        }
    ],
    "accessors" : [
        {
            "bufferView" : 0,
            "componentType" : 5126,
            "count" : 4059,
            "max" : [
                10.771149635314941,
                1.4870082139968872,
                -22.393306732177734
            ],
            "min" : [
                7.7110981941223145,
                -0.44376417994499207,
                -34.08776092529297
            ],
            "type" : "VEC3"
        },
        {
            "bufferView" : 1,
            "componentType" : 5126,
            "count" : 4059,
            "type" : "VEC3"
        },
        {
            "bufferView" : 2,
            "componentType" : 5126,
            "count" : 4059,
            "type" : "VEC2"
        },
        {
            "bufferView" : 3,
            "componentType" : 5123,
            "count" : 20736,
            "type" : "SCALAR"
        },
        {
            "bufferView" : 4,
            "componentType" : 5126,
            "count" : 3112,
            "max" : [
                15.359880447387695,
                15.010819435119629,
                20.85190200805664
            ],
            "min" : [
                -15.917766571044922,
                -13.96756649017334,
                -24.09909439086914
            ],
            "type" : "VEC3"
        },
        {
            "bufferView" : 5,
            "componentType" : 5126,
            "count" : 3112,
            "type" : "VEC3"
        },
        {
            "bufferView" : 6,
            "componentType" : 5126,
            "count" : 3112,
            "type" : "VEC2"
        },
        {
            "bufferView" : 7,
            "componentType" : 5123,
            "count" : 13824,
            "type" : "SCALAR"
        },
        {
            "bufferView" : 8,
            "componentType" : 5126,
            "count" : 3205,
            "max" : [
                9.426164627075195,
                16.51326560974121,
                -11.670883178710938
            ],
            "min" : [
                -11.023458480834961,
                0.5872082710266113,
                -27.426937103271484
            ],
            "type" : "VEC3"
        },
        {
            "bufferView" : 9,
            "componentType" : 5126,
            "count" : 3205,
            "type" : "VEC3"
        },
        {
            "bufferView" : 10,
            "componentType" : 5126,
            "count" : 3205,
            "type" : "VEC2"
        },
        {
            "bufferView" : 11,
            "componentType" : 5123,
            "count" : 13440,
            "type" : "SCALAR"
        },
        {
            "bufferView" : 12,
            "componentType" : 5126,
            "count" : 1,
            "max" : [
                0.03333333333333333
            ],
            "min" : [
                0.03333333333333333
            ],
            "type" : "SCALAR"
        },
        {
            "bufferView" : 13,
            "componentType" : 5126,
            "count" : 1,
            "type" : "VEC3"
        },
        {
            "bufferView" : 14,
            "componentType" : 5126,
            "count" : 1,
            "type" : "VEC4"
        },
        {
            "bufferView" : 15,
            "componentType" : 5126,
            "count" : 1,
            "type" : "VEC3"
        },
        {
            "bufferView" : 16,
            "componentType" : 5126,
            "count" : 1,
            "type" : "VEC3"
        },
        {
            "bufferView" : 17,
            "componentType" : 5126,
            "count" : 1,
            "type" : "VEC4"
        },
        {
            "bufferView" : 18,
            "componentType" : 5126,
            "count" : 1,
            "type" : "VEC3"
        },
        {
            "bufferView" : 19,
            "componentType" : 5126,
            "count" : 1,
            "type" : "VEC3"
        },
        {
            "bufferView" : 20,
            "componentType" : 5126,
            "count" : 1,
            "type" : "VEC4"
        },
        {
            "bufferView" : 21,
            "componentType" : 5126,
            "count" : 1,
            "type" : "VEC3"
        }
    ],
    "bufferViews" : [
        {
            "buffer" : 0,
            "byteLength" : 48708,
            "byteOffset" : 0
        },
        {
            "buffer" : 0,
            "byteLength" : 48708,
            "byteOffset" : 48708
        },
        {
            "buffer" : 0,
            "byteLength" : 32472,
            "byteOffset" : 97416
        },
        {
            "buffer" : 0,
            "byteLength" : 41472,
            "byteOffset" : 129888
        },
        {
            "buffer" : 0,
            "byteLength" : 37344,
            "byteOffset" : 171360
        },
        {
            "buffer" : 0,
            "byteLength" : 37344,
            "byteOffset" : 208704
        },
        {
            "buffer" : 0,
            "byteLength" : 24896,
            "byteOffset" : 246048
        },
        {
            "buffer" : 0,
            "byteLength" : 27648,
            "byteOffset" : 270944
        },
        {
            "buffer" : 0,
            "byteLength" : 38460,
            "byteOffset" : 298592
        },
        {
            "buffer" : 0,
            "byteLength" : 38460,
            "byteOffset" : 337052
        },
        {
            "buffer" : 0,
            "byteLength" : 25640,
            "byteOffset" : 375512
        },
        {
            "buffer" : 0,
            "byteLength" : 26880,
            "byteOffset" : 401152
        },
        {
            "buffer" : 0,
            "byteLength" : 4,
            "byteOffset" : 428032
        },
        {
            "buffer" : 0,
            "byteLength" : 12,
            "byteOffset" : 428036
        },
        {
            "buffer" : 0,
            "byteLength" : 16,
            "byteOffset" : 428048
        },
        {
            "buffer" : 0,
            "byteLength" : 12,
            "byteOffset" : 428064
        },
        {
            "buffer" : 0,
            "byteLength" : 12,
            "byteOffset" : 428076
        },
        {
            "buffer" : 0,
            "byteLength" : 16,
            "byteOffset" : 428088
        },
        {
            "buffer" : 0,
            "byteLength" : 12,
            "byteOffset" : 428104
        },
        {
            "buffer" : 0,
            "byteLength" : 12,
            "byteOffset" : 428116
        },
        {
            "buffer" : 0,
            "byteLength" : 16,
            "byteOffset" : 428128
        },
        {
            "buffer" : 0,
            "byteLength" : 12,
            "byteOffset" : 428144
        }
    ],
    "buffers" : [
        {
            "byteLength" : 428156,
            "uri" : "mango.bin"
        }
    ]
}
