<svg width="117" height="34" viewBox="0 0 117 34" fill="none" xmlns="http://www.w3.org/2000/svg">
<path d="M12.1734 7.49223C11.6714 7.49524 11.1736 7.4003 10.7075 7.21266L10.5638 7.1516L10.4584 7.03913C9.85816 6.39744 9.49814 5.56588 9.43988 4.68665C9.38162 3.80742 9.62875 2.93513 10.139 2.21895C11.7902 -0.210421 14.8594 0.00488064 14.9904 0.00488064L15.4247 0.0370152L15.6132 0.435483C15.6674 0.554381 16.9609 3.35973 15.2938 5.79231C14.9585 6.31758 14.4966 6.74892 13.951 7.04616C13.4054 7.34339 12.7939 7.49685 12.1734 7.49223ZM11.4453 5.86301C11.92 6.0261 12.4354 6.02383 12.9087 5.85655C13.3819 5.68928 13.7855 5.36672 14.0546 4.94074C14.9041 3.69392 14.6295 2.2543 14.4091 1.5377C13.6681 1.5859 12.2182 1.85904 11.3718 3.08337C11.0726 3.48792 10.9172 3.98189 10.9305 4.48597C10.9439 4.99006 11.1251 5.47502 11.4453 5.86301Z" fill="black"/>
<path d="M11.1802 34H10.7203C9.76213 33.9743 6.67693 33.6369 5.50481 30.3688C5.39942 30.0699 5.29721 29.7807 5.18543 29.5012C4.49557 27.5249 3.95263 25.9664 2.09384 23.9226C-0.317467 21.2522 0.00191165 17.1294 0.027462 16.9558V16.9173C0.583181 13.1029 1.88944 10.4293 3.90792 8.96399C5.05162 8.11134 6.46626 7.71006 7.88418 7.83607C8.57431 7.79432 9.2652 7.90396 9.90905 8.15741C10.5478 8.38557 11.1866 8.59765 12.8058 8.347C15.6515 7.90676 16.5713 8.51089 17.3314 9.21785C17.3953 9.27891 17.456 9.33675 17.5198 9.38816C20.7903 11.9975 21.0522 17.2836 21.0809 17.8492C21.1097 18.4148 21.6239 23.3603 18.2896 28.55C15.0415 33.5919 12.7547 34 11.1802 34ZM1.53174 17.1101C1.51257 17.3832 1.30817 20.8023 3.21167 22.8943C5.27805 25.1437 5.89765 26.9368 6.61306 28.9999C6.70887 29.2762 6.80788 29.559 6.91327 29.8514C7.73727 32.1394 9.85475 32.4608 10.7267 32.4608C12.0776 32.4961 13.9204 32.5475 17.012 27.7113C20.1707 22.7915 19.5671 18.0452 19.5671 17.997V17.9135C19.5671 17.862 19.4138 12.8201 16.5841 10.5675C16.4883 10.4904 16.402 10.41 16.3094 10.3233C15.8846 9.92802 15.4024 9.47814 13.0422 9.84126C11.046 10.1626 10.1454 9.84126 9.42359 9.5874C8.947 9.38867 8.43047 9.30609 7.91612 9.34639H7.8235L7.73088 9.33032C6.66894 9.23208 5.60955 9.54335 4.76705 10.2012C3.10628 11.4383 2.02039 13.7585 1.53174 17.1101Z" fill="black"/>
<path d="M45.7466 16.8884V25.0698H44.188V16.8884C44.1838 16.4425 44.0057 16.0162 43.6921 15.7012C43.3784 15.3862 42.9544 15.2079 42.5113 15.2045H39.6975C39.2547 15.2079 38.831 15.3864 38.5178 15.7014C38.2047 16.0165 38.0273 16.4428 38.024 16.8884V25.0698H36.4622V16.8884C36.4589 16.4428 36.2815 16.0165 35.9683 15.7014C35.6552 15.3864 35.2315 15.2079 34.7887 15.2045H31.9749C31.5318 15.2079 31.1077 15.3862 30.7941 15.7012C30.4805 16.0162 30.3024 16.4425 30.2982 16.8884V25.0698H28.746V16.8884C28.7536 16.0312 29.0982 15.212 29.7045 14.6098C30.3108 14.0076 31.1294 13.6715 31.9813 13.6749H34.7951C35.261 13.673 35.722 13.7712 36.1472 13.963C36.5724 14.1547 36.952 14.4356 37.2607 14.7868C37.561 14.4332 37.935 14.1505 38.3562 13.9589C38.7774 13.7673 39.2353 13.6714 39.6975 13.6781H42.5113C43.3626 13.6747 44.1808 14.0104 44.787 14.6119C45.3931 15.2134 45.7381 16.0318 45.7466 16.8884Z" fill="black"/>
<path d="M61.9998 25.0698V16.8884C62.0023 16.6698 61.962 16.4528 61.8812 16.2499C61.8004 16.0469 61.6806 15.862 61.5288 15.7057C61.3769 15.5493 61.196 15.4246 60.9962 15.3386C60.7964 15.2526 60.5818 15.207 60.3645 15.2045H55.4557C55.0129 15.2079 54.5891 15.3864 54.276 15.7014C53.9629 16.0165 53.7855 16.4428 53.7821 16.8884V21.8274C53.7855 22.273 53.9629 22.6993 54.276 23.0144C54.5891 23.3294 55.0129 23.5079 55.4557 23.5113H60.3645V25.0698H55.4557C55.0311 25.0702 54.6106 24.9864 54.2183 24.8231C53.826 24.6598 53.4695 24.4203 53.1693 24.1183C52.8691 23.8162 52.631 23.4575 52.4687 23.0628C52.3065 22.668 52.2231 22.245 52.2236 21.8178V16.8884C52.2303 16.0315 52.5742 15.2123 53.18 14.61C53.7858 14.0077 54.6041 13.6715 55.4557 13.6749H60.3645C61.21 13.68 62.0195 14.0202 62.6173 14.6217C63.2152 15.2232 63.5533 16.0377 63.5583 16.8884V25.0698H61.9998Z" fill="black"/>
<path d="M81.3733 16.8884V25.0698H79.8466V16.8884C79.8425 16.4425 79.6644 16.0162 79.3507 15.7012C79.0371 15.3862 78.613 15.2079 78.1699 15.2045H73.2706C72.8275 15.2079 72.4034 15.3862 72.0898 15.7012C71.7762 16.0162 71.5981 16.4425 71.5939 16.8884V25.0698H70.0353V16.8884C70.0429 16.0312 70.3875 15.212 70.9938 14.6098C71.6001 14.0076 72.4187 13.6715 73.2706 13.6749H78.1763C79.0223 13.6791 79.8326 14.0189 80.4312 14.6206C81.0297 15.2222 81.3682 16.0371 81.3733 16.8884Z" fill="black"/>
<path d="M99.1882 16.8884V25.9632C99.1798 26.82 98.8349 27.6388 98.2288 28.2408C97.6227 28.8428 96.8046 29.1792 95.9529 29.1766V27.6406C96.1731 27.6419 96.3913 27.5992 96.5949 27.515C96.7985 27.4308 96.9835 27.3069 97.1391 27.1502C97.2948 26.9936 97.418 26.8075 97.5017 26.6026C97.5853 26.3977 97.6277 26.1782 97.6265 25.9567V16.8884C97.6277 16.6669 97.5853 16.4473 97.5017 16.2425C97.418 16.0376 97.2948 15.8515 97.1391 15.6948C96.9835 15.5382 96.7985 15.4143 96.5949 15.3301C96.3913 15.2459 96.1731 15.2032 95.9529 15.2045H91.0824C90.8623 15.2032 90.6441 15.2459 90.4405 15.3301C90.2368 15.4143 90.0518 15.5382 89.8962 15.6948C89.7405 15.8515 89.6173 16.0376 89.5336 16.2425C89.45 16.4473 89.4076 16.6669 89.4089 16.8884V21.8274C89.4076 22.0489 89.45 22.2685 89.5336 22.4733C89.6173 22.6782 89.7405 22.8643 89.8962 23.021C90.0518 23.1776 90.2368 23.3015 90.4405 23.3857C90.6441 23.4699 90.8623 23.5126 91.0824 23.5113H95.9529V25.0698H91.0824C90.6578 25.0702 90.2374 24.9864 89.845 24.8231C89.4527 24.6598 89.0962 24.4203 88.796 24.1183C88.4958 23.8162 88.2577 23.4575 88.0955 23.0628C87.9332 22.668 87.8499 22.245 87.8503 21.8178V16.8884C87.857 16.0315 88.201 15.2123 88.8067 14.61C89.4125 14.0077 90.2308 13.6715 91.0824 13.6749H95.9529C96.8048 13.6715 97.6235 14.0076 98.2298 14.6098C98.836 15.212 99.1806 16.0312 99.1882 16.8884Z" fill="black"/>
<path d="M113.765 13.6749C114.617 13.6715 115.435 14.0076 116.042 14.6098C116.648 15.212 116.992 16.0312 117 16.8884V21.8274C116.999 22.2541 116.915 22.6764 116.752 23.0702C116.589 23.4641 116.35 23.8217 116.05 24.1228C115.749 24.4239 115.393 24.6625 115.001 24.825C114.609 24.9875 114.189 25.0707 113.765 25.0698H108.91C108.485 25.0707 108.064 24.9871 107.672 24.8241C107.279 24.661 106.922 24.4215 106.622 24.1194C106.321 23.8173 106.083 23.4585 105.92 23.0635C105.758 22.6686 105.674 22.2452 105.675 21.8178V16.8884C105.682 16.0312 106.027 15.212 106.633 14.6098C107.24 14.0076 108.058 13.6715 108.91 13.6749H113.765ZM108.91 23.5113H113.765C113.985 23.5126 114.203 23.4699 114.407 23.3858C114.611 23.3016 114.796 23.1777 114.952 23.0211C115.108 22.8646 115.231 22.6785 115.315 22.4736C115.399 22.2687 115.442 22.0491 115.441 21.8274V16.8884C115.442 16.6667 115.399 16.4471 115.315 16.2422C115.231 16.0373 115.108 15.8512 114.952 15.6947C114.796 15.5381 114.611 15.4142 114.407 15.33C114.203 15.2459 113.985 15.2032 113.765 15.2045H108.91C108.69 15.2032 108.472 15.2459 108.268 15.3301C108.065 15.4143 107.88 15.5382 107.724 15.6948C107.568 15.8515 107.445 16.0376 107.361 16.2425C107.278 16.4473 107.235 16.6669 107.237 16.8884V21.8274C107.235 22.0489 107.278 22.2685 107.361 22.4733C107.445 22.6782 107.568 22.8643 107.724 23.021C107.88 23.1776 108.065 23.3015 108.268 23.3857C108.472 23.4699 108.69 23.5126 108.91 23.5113Z" fill="black"/>
</svg>
