<svg width="68" height="109" viewBox="0 0 68 109" fill="none" xmlns="http://www.w3.org/2000/svg">
<path d="M39.1841 24.0192C37.5682 24.0289 35.9657 23.7245 34.4654 23.1229L34.0028 22.9272L33.6636 22.5666C31.7316 20.5094 30.5727 17.8435 30.3852 15.0248C30.1977 12.2061 30.9932 9.40968 32.6356 7.11369C37.9504 -0.674584 47.8297 0.0156467 48.2512 0.0156467L49.6493 0.118666L50.2559 1.39611C50.4306 1.77728 54.5941 10.7709 49.2278 18.5695C48.1487 20.2534 46.6617 21.6363 44.9056 22.5891C43.1494 23.542 41.1811 24.034 39.1841 24.0192ZM36.8402 18.7961C38.3682 19.319 40.0272 19.3117 41.5506 18.7754C43.074 18.2391 44.3731 17.2051 45.2391 15.8394C47.9736 11.8423 47.0896 7.22701 46.3802 4.92968C43.9952 5.08421 39.328 5.95987 36.6037 9.88492C35.6407 11.1819 35.1405 12.7655 35.1834 14.3815C35.2262 15.9975 35.8097 17.5523 36.8402 18.7961Z" fill="url(#paint0_linear)"/>
<path d="M35.9869 109H34.5066C31.4225 108.918 21.4918 107.836 17.719 97.3588C17.3797 96.4007 17.0508 95.4735 16.6909 94.5773C14.4704 88.2416 12.7228 83.2451 6.7397 76.6931C-1.02187 68.1322 0.00615327 54.9147 0.088395 54.3584V54.2348C1.87715 42.0064 6.08176 33.4352 12.5789 28.7375C16.2602 26.004 20.8137 24.7176 25.3777 25.1215C27.5991 24.9877 29.823 25.3392 31.8954 26.1517C33.9514 26.8831 36.0075 27.5631 41.2195 26.7595C50.3792 25.3481 53.3399 27.2849 55.7866 29.5513C55.9922 29.7471 56.1875 29.9325 56.3931 30.0973C66.9201 38.4625 67.7631 55.4092 67.8556 57.2224C67.9481 59.0355 69.6032 74.8902 58.8707 91.5279C48.4157 107.692 41.0551 109 35.9869 109ZM4.93038 54.8529C4.8687 55.7286 4.21076 66.6899 10.3378 73.3965C16.9891 80.6078 18.9834 86.3563 21.2862 92.9702C21.5946 93.8561 21.9133 94.7627 22.2525 95.7002C24.9048 103.035 31.7206 104.065 34.5271 104.065C38.8757 104.179 44.8073 104.344 54.7586 88.8391C64.9257 73.0668 62.9828 57.8508 62.9828 57.6963V57.4284C62.9828 57.2636 62.4893 41.0998 53.381 33.8782C53.0726 33.6309 52.7951 33.3734 52.4969 33.0952C51.1297 31.8281 49.5774 30.3858 41.9803 31.5499C35.5551 32.5801 32.6561 31.5499 30.3328 30.7361C28.7987 30.099 27.1361 29.8342 25.4805 29.9634H25.1824L24.8843 29.9119C21.4661 29.5969 18.0561 30.5949 15.3442 32.7037C9.99852 36.67 6.50325 44.108 4.93038 54.8529Z" fill="url(#paint1_linear)"/>
<defs>
<linearGradient id="paint0_linear" x1="50.5" y1="6.30033e-07" x2="27" y2="109" gradientUnits="userSpaceOnUse">
<stop stop-color="white" stop-opacity="0.27"/>
<stop offset="1" stop-color="white"/>
</linearGradient>
<linearGradient id="paint1_linear" x1="50.5" y1="6.30033e-07" x2="27" y2="109" gradientUnits="userSpaceOnUse">
<stop stop-color="white" stop-opacity="0.27"/>
<stop offset="1" stop-color="white"/>
</linearGradient>
</defs>
</svg>
